<svg xmlns="http://www.w3.org/2000/svg" viewBox="0 0 32 32" width="32" height="32">
  <defs>
    <linearGradient id="f" x1="0" y1="0" x2="0" y2="1">
      <stop offset="0" stop-color="#ff6266"/>
      <stop offset="0.5" stop-color="#e3337a"/>
      <stop offset="1" stop-color="#6f3be6"/>
    </linearGradient>
    <radialGradient id="bg" cx="0.5" cy="0.55" r="0.6">
      <stop offset="0" stop-color="#1a061a"/>
      <stop offset="1" stop-color="#0a0410"/>
    </radialGradient>
  </defs>
  <rect width="32" height="32" rx="8" fill="url(#bg)"/>
  <path d="M16 4.5c1.1 4 4.3 5.3 6.6 8.6 3 4.2 4.1 8.5 2.9 12.4-1.4 4.9-5.5 7.5-9.5 7.5s-8.1-2.6-9.5-7.5c-1.2-3.9-.1-8.2 2.9-12.4C11.7 9.8 14.9 8.5 16 4.5Z" fill="url(#f)"/>
  <path d="M16 13c.5 2 2.1 2.7 3.3 4.4 1.5 2.1 2 4.3 1.4 6.3-.6 2.4-2.7 3.8-4.7 3.8s-4.1-1.4-4.7-3.8c-.6-2-.1-4.2 1.4-6.3 1.2-1.7 2.8-2.4 3.3-4.4Z" fill="#ffe6c2" opacity="0.85"/>
</svg>
